<?xml version="1.0" encoding="utf-8"?><svg width="336" height="186" viewBox="0 0 336 186" xmlns="http://www.w3.org/2000/svg" xmlns:xlink="http://www.w3.org/1999/xlink"><svg width="26" height="26" fill="none" viewBox="0 0 26 26" id="big-cross-close" x="310" y="115" xmlns="http://www.w3.org/2000/svg"><path d="M26 3l-3-3-10 10L3 0 0 3l10 10L0 23l3 3 10-10 10 10 3-3-10-10L26 3z" fill="#000"/></svg><svg width="16" height="14" fill="none" viewBox="0 0 16 14" id="cart" x="313" y="142" xmlns="http://www.w3.org/2000/svg"><path d="M15.3 5l-3.5.2L8.6.3C8.5.1 8.2 0 8 0c-.2 0-.5.1-.6.3L4.2 5.2H.7c-.4 0-.7.3-.7.7v.2l1.9 6.8c.2.7.7 1.1 1.4 1.1h9.4c.7 0 1.2-.4 1.4-1.1L16 6v-.2c0-.4-.3-.8-.7-.8zM8 1.9l2.2 3.2H5.9L8 1.9z" fill="#000"/></svg><svg width="107" height="65" fill="none" viewBox="0 0 107 65" id="categories--fit-tracker" x="132" xmlns="http://www.w3.org/2000/svg"><g clip-path="url(#acclip0)" fill="#363636"><path d="M98.967 4.074c.752 1.441 1.209 3.08 1.209 4.818v21.102c0 4.616-3.092 8.527-7.246 9.9-1.325 3.987-3.778 7.854-8.051 10.432-8.676 5.231-31.124 4.837-31.198 4.837-.078 0-22.513.395-31.189-4.837-4.216-2.545-6.708-6.347-8.042-10.279-4.418-1.209-7.756-5.251-7.756-10.053V8.893c0-1.688.427-3.282 1.139-4.693C4.17 5.109 0 6.918 0 10.434v29.983C0 50.668 11.839 64.85 53.657 64.85c41.82 0 53.657-14.182 53.657-24.433V10.434c-.001-3.684-4.576-5.494-8.347-6.36z"/><path d="M20.561 38.459h65.523c5.564 0 10.074-4.513 10.074-10.077V9.935c0-5.563-4.51-10.075-10.074-10.075H20.561c-5.564 0-10.075 4.511-10.075 10.075v18.447c0 5.564 4.511 10.077 10.075 10.077zM83.695 9.468a1.57 1.57 0 110 3.139 1.57 1.57 0 010-3.139zm0 4.039a1.569 1.569 0 110 3.138 1.569 1.569 0 010-3.138zm0 4.039a1.568 1.568 0 11.001 3.137 1.568 1.568 0 01-.001-3.137zm0 3.827a1.57 1.57 0 11-.001 3.14 1.57 1.57 0 01.001-3.14zm0 4.039a1.568 1.568 0 11.001 3.137 1.568 1.568 0 01-.001-3.137zM79.656 9.468c.867 0 1.568.703 1.568 1.57a1.568 1.568 0 11-3.136 0c0-.868.703-1.57 1.568-1.57zm0 15.944a1.568 1.568 0 110 3.135 1.568 1.568 0 010-3.135zM75.619 9.468a1.57 1.57 0 11-.003 3.14 1.57 1.57 0 01.003-3.14zm0 4.039a1.57 1.57 0 11-.003 3.139 1.57 1.57 0 01.003-3.139zm0 4.039a1.569 1.569 0 11-.002 3.138 1.569 1.569 0 01.002-3.138zm0 3.827a1.568 1.568 0 110 3.138 1.568 1.568 0 010-3.138zm0 4.039a1.569 1.569 0 11-.002 3.138 1.569 1.569 0 01.002-3.138zM67.965 9.468c.867 0 1.568.703 1.568 1.57a1.568 1.568 0 11-3.136 0 1.568 1.568 0 011.568-1.57zm0 8.078a1.568 1.568 0 110 3.14 1.568 1.568 0 010-3.14zm0 3.881a1.569 1.569 0 11-.002 3.136 1.569 1.569 0 01.002-3.136zm0 3.985a1.568 1.568 0 110 3.135 1.568 1.568 0 010-3.135zM63.926 9.468a1.57 1.57 0 110 3.14 1.57 1.57 0 010-3.14zm0 8.078a1.57 1.57 0 11.001 3.139 1.57 1.57 0 01-.001-3.139zm0 7.866a1.57 1.57 0 11.001 3.139 1.57 1.57 0 01-.001-3.139zM59.888 9.468a1.57 1.57 0 010 3.139 1.568 1.568 0 01-1.568-1.569 1.567 1.567 0 011.568-1.57zm0 4.039a1.57 1.57 0 11-.001 3.135 1.57 1.57 0 01.001-3.135zm0 4.039a1.57 1.57 0 11-.001 3.14 1.57 1.57 0 01.001-3.14zm0 7.866a1.57 1.57 0 010 3.137 1.569 1.569 0 010-3.137zm-8.29-15.944a1.57 1.57 0 110 3.139 1.57 1.57 0 010-3.139zm0 4.039a1.569 1.569 0 110 3.138 1.569 1.569 0 010-3.138zm0 4.039a1.568 1.568 0 11.001 3.137 1.568 1.568 0 01-.001-3.137zm0 3.881a1.568 1.568 0 110 3.137 1.569 1.569 0 010-3.137zm0 3.985a1.568 1.568 0 11.001 3.137 1.568 1.568 0 01-.001-3.137zm-4.039-11.905a1.568 1.568 0 110 3.136 1.568 1.568 0 010-3.136zm-8.502-.212a1.57 1.57 0 11-.001 3.135 1.57 1.57 0 01.001-3.135zm0 4.038a1.57 1.57 0 11-.003 3.141 1.57 1.57 0 01.003-3.141zm-4.039-8.078a1.57 1.57 0 11-.003 3.14 1.57 1.57 0 01.003-3.14zm0 4.04a1.57 1.57 0 11-.003 3.139 1.57 1.57 0 01.003-3.139zm0 4.038a1.57 1.57 0 11-.003 3.14 1.57 1.57 0 01.003-3.14zm0 4.04a1.569 1.569 0 11-.001 3.137 1.569 1.569 0 01.001-3.137zm-4.254-8.078a1.569 1.569 0 110 3.138 1.569 1.569 0 010-3.138zm0 4.038a1.57 1.57 0 110 3.139 1.57 1.57 0 010-3.139zm0 4.04a1.57 1.57 0 11-.001 3.14 1.57 1.57 0 01.001-3.14zm0 4.039a1.568 1.568 0 11.001 3.137 1.568 1.568 0 01-.001-3.137zM26.3 9.255a1.57 1.57 0 11.002 3.136 1.57 1.57 0 01-.002-3.136zm0 4.04a1.57 1.57 0 011.571 1.568 1.57 1.57 0 01-3.14 0 1.57 1.57 0 011.569-1.568zm0 4.038a1.571 1.571 0 110 3.14 1.571 1.571 0 010-3.14zm0 4.04a1.57 1.57 0 11.003 3.135 1.57 1.57 0 01-.003-3.135zm-4.037-8.078a1.57 1.57 0 11-.001 3.135 1.57 1.57 0 01.001-3.135zm0 4.038a1.57 1.57 0 010 3.14 1.57 1.57 0 010-3.14z"/></g><defs><clipPath id="acclip0"><path fill="#fff" d="M0 0h107v65H0z"/></clipPath></defs></svg><svg width="71" height="87" fill="none" viewBox="0 0 71 87" id="categories--gopro" x="239" y="55" xmlns="http://www.w3.org/2000/svg"><g clip-path="url(#adclip0)" fill="#363636"><path d="M53.349 1.49c0-.736-.578-1.49-1.311-1.49H9.053C8.32 0 7.672.754 7.672 1.49v3.522h45.676l.001-3.522zM54.202 81.809h-9.597V71.426h-6.958v2.507H18.774c-.537-1.254-1.757-2.148-3.181-2.148H3.559C1.642 71.784 0 73.387 0 75.311v3.018c0 1.924 1.642 3.48 3.559 3.48h12.035c1.511 0 2.792-.896 3.269-2.326h18.785v2.326H28.13c-.533 0-1.01.437-1.01.972v3.172c0 .535.478 1.048 1.01 1.048h26.072c.533 0 .93-.513.93-1.048V82.78c0-.535-.397-.971-.93-.971zM60.666 12.39a7.037 7.037 0 00-6.771-5.05H7.148C3.25 7.34 0 10.449 0 14.361v46.9c0 3.912 3.25 7.121 7.148 7.121h46.747c3.898 0 7.126-3.209 7.126-7.121V50.915a23.228 23.228 0 0010.001-19.164c-.001-8.079-4.132-15.181-10.356-19.361zM12.238 62.151c-3.259 0-5.901-2.65-5.901-5.921 0-3.27 2.642-5.922 5.901-5.922s5.902 2.652 5.902 5.922c0 3.271-2.643 5.921-5.902 5.921zm5.961-32.605a1.42 1.42 0 01-1.418 1.422h-8.94a1.42 1.42 0 01-1.418-1.422v-14.16a1.42 1.42 0 011.418-1.423h8.939a1.42 1.42 0 011.418 1.423l.001 14.16zm29.563 22.312c-11.076 0-20.057-9.01-20.057-20.123 0-11.113 8.98-20.124 20.057-20.124 11.077 0 20.058 9.01 20.058 20.124 0 11.114-8.981 20.123-20.058 20.123z"/><path d="M47.762 43.964c6.731 0 12.188-5.475 12.188-12.229s-5.457-12.229-12.188-12.229c-6.731 0-12.188 5.475-12.188 12.229s5.457 12.229 12.188 12.229zM31.562 33.171a1.435 1.435 0 100-2.87 1.435 1.435 0 000 2.87zM63.963 33.171a1.435 1.435 0 100-2.87 1.435 1.435 0 000 2.87zM39.109 19.429a1.435 1.435 0 100-2.87 1.435 1.435 0 000 2.87zM56.415 46.912c.79 0 1.43-.643 1.43-1.436 0-.793-.64-1.436-1.43-1.436-.79 0-1.43.643-1.43 1.436 0 .793.64 1.436 1.43 1.436zM55.697 19a1.435 1.435 0 100-2.87 1.435 1.435 0 000 2.87zM39.828 47.341a1.435 1.435 0 100-2.87 1.435 1.435 0 000 2.87z"/></g><defs><clipPath id="adclip0"><path fill="#fff" d="M0 0h71v87H0z"/></clipPath></defs></svg><svg width="86" height="117" fill="none" viewBox="0 0 86 117" id="categories--monopod" y="69" xmlns="http://www.w3.org/2000/svg"><g clip-path="url(#aeclip0)" fill="#363636"><path d="M82.821 4.011H3.33A3.188 3.188 0 00.142 7.199v46.413a3.187 3.187 0 003.188 3.189h79.492a3.188 3.188 0 003.189-3.189V7.199a3.189 3.189 0 00-3.19-3.188zM8.392 37.236h-.226a3.19 3.19 0 01-3.189-3.189v-7.283a3.188 3.188 0 013.189-3.188h.226v13.66zm61.231 15.172H13.341V8.402h56.282v44.006zM78.4 34.552a4.146 4.146 0 01-4.146-4.147 4.146 4.146 0 114.146 4.147zM54.654 0H31.497v2.758h23.157V0zM46.608 64.861v-2.973h8.046V59.13H31.498v2.758h8.045v35.246a6.068 6.068 0 00-3.635 5.559V117h14.335v-14.307a6.062 6.062 0 00-3.636-5.557v-27.99h4.796l5.051 1.213v-6.711l-5.051 1.213h-4.795z"/></g><defs><clipPath id="aeclip0"><path fill="#fff" d="M0 0h86v117H0z"/></clipPath></defs></svg><svg width="132" height="69" fill="none" viewBox="0 0 132 69" id="categories--quadrocopter" xmlns="http://www.w3.org/2000/svg"><g clip-path="url(#afclip0)" fill="#363636"><path d="M12.052.258C6.507.745 1.838 1.85.575 2.93c-.723.617-.723.617-.232 1.157.644.72 3.713 1.645 7.247 2.236 3.998.668 12.51.693 13.724.051 1.211-.668 1.623-1.414 1.623-2.981 0-1.619-.619-2.416-2.217-2.853C19.274.154 14.94 0 12.052.258zM25.774.488c-.129.283-.258 2.108-.258 4.112 0 4.061.155 3.778-2.192 3.933l-1.03.077-.259 5.089-1.186.283c-2.58.668-4 2.595-3.792 5.294.128 1.927 1.03 3.341 2.579 4.087 1.109.513 1.47.538 11.246.538 5.545 0 10.137.079 10.188.18.051.13-1.11 9.408-2.58 20.64-1.444 11.23-2.683 20.997-2.708 21.666-.051 1.617.826 2.62 2.348 2.62 1.237 0 2.012-.64 2.321-1.9.13-.514 1.496-10.334 3.018-21.822 1.522-11.463 2.863-20.869 2.94-20.869.104 0 1.084 1.413 2.193 3.136 2.94 4.626 2.399 4.317 7.635 4.317h4.359v5.63l-5.133.077c-4.72.077-5.21.127-5.881.615-1.573 1.157-1.625 1.415-1.625 10.977 0 9.534.026 9.792 1.522 11.05l.851.695h31.365l.851-.696c1.496-1.257 1.52-1.515 1.52-11.05 0-9.56-.05-9.819-1.622-10.976-.671-.488-1.162-.538-5.882-.615l-5.132-.077v-5.63h4.36c5.234 0 4.693.309 7.633-4.317 1.11-1.723 2.09-3.136 2.194-3.136.076 0 1.418 9.406 2.94 20.869 1.522 11.488 2.889 21.308 3.018 21.821.31 1.26 1.082 1.902 2.321 1.902 1.522 0 2.4-1.004 2.347-2.621-.026-.67-1.264-10.436-2.71-21.666-1.468-11.232-2.63-20.51-2.577-20.64.05-.101 4.641-.18 10.189-.18 9.775 0 10.136-.025 11.244-.538 1.548-.746 2.45-2.16 2.579-4.087.207-2.699-1.211-4.626-3.791-5.294l-1.187-.283-.256-5.089-1.032-.077c-2.347-.155-2.194.128-2.194-3.933 0-2.004-.128-3.829-.257-4.112-.206-.36-.543-.488-1.367-.488-.619 0-1.238.128-1.42.309-.206.205-.309 1.465-.309 3.932 0 2.467-.103 3.727-.31 3.932-.18.18-.901.308-1.649.308-1.626 0-1.652.052-1.652 3.11v2.287H32.48v-2.287c0-3.058-.024-3.11-1.65-3.11-.748 0-1.47-.129-1.65-.308-.207-.205-.31-1.465-.31-3.932 0-2.467-.103-3.727-.31-3.932-.18-.18-.8-.309-1.418-.309-.825 0-1.16.128-1.368.488zm42.843 40.12c2.889.899 5.392 3.393 6.166 6.168.439 1.543.31 4.216-.284 5.784-.696 1.875-2.685 4.01-4.565 4.935-1.29.642-1.754.719-3.921.719s-2.631-.077-3.92-.719c-1.885-.926-3.87-3.06-4.567-4.935-.592-1.568-.722-4.24-.283-5.784.748-2.723 3.25-5.27 6.061-6.168 2.012-.642 3.3-.642 5.313 0z"/><path d="M63.794 44.438c-2.037.925-3.507 3.649-3.069 5.73.774 3.677 4.823 5.553 7.996 3.702 1.985-1.158 2.99-3.547 2.45-5.783-.568-2.39-2.734-4.138-5.158-4.138-.646 0-1.626.232-2.22.489zM36.092.154c-3.92.668-4.513 1.131-4.513 3.444 0 1.825.463 2.416 2.268 2.956 1.55.462 7.172.514 10.5.128 6.86-.822 11.322-2.544 9.698-3.752-1.265-.9-4.902-1.876-9.054-2.39-2.475-.308-7.996-.54-8.9-.386zM89.484.258C83.165.848 77.62 2.339 77.62 3.444c0 1.722 7.84 3.47 15.63 3.496 5.804 0 7.196-.643 7.196-3.342 0-1.824-.619-2.621-2.373-3.084C96.423.103 92.398 0 89.484.258zM112.776.283c-1.78.231-3.018.77-3.43 1.491-.387.77-.31 2.904.154 3.572.928 1.31 1.652 1.465 7.068 1.465 3.661 0 5.802-.129 7.867-.488 3.534-.591 6.603-1.517 7.248-2.236.49-.54.49-.54-.233-1.157-1.341-1.13-5.958-2.185-11.916-2.672-3.481-.283-4.488-.283-6.758.025z"/></g><defs><clipPath id="afclip0"><path fill="#fff" d="M0 0h132v69H0z"/></clipPath></defs></svg><svg width="56" height="98" fill="none" viewBox="0 0 56 98" id="categories--smart-watch" x="132" y="65" xmlns="http://www.w3.org/2000/svg"><g clip-path="url(#agclip0)" fill="#363636"><path d="M54.494 32.197h-1.515v-4.64c0-5.052-4.087-9.186-9.082-9.186H9.082C4.086 18.372 0 22.505 0 27.557v42.868c0 5.052 4.087 9.185 9.083 9.185h34.815c4.995 0 9.082-4.133 9.082-9.185V67.01h1.515a.764.764 0 00.757-.764V52.467a.765.765 0 00-.757-.766H52.98v-8.788h1.515c.832 0 1.514-.688 1.514-1.531v-7.654a1.529 1.529 0 00-1.515-1.531zm-20.412-3.109c2.926 0 5.299 2.398 5.299 5.358 0 2.96-2.373 5.358-5.299 5.358s-5.298-2.398-5.298-5.358c0-2.96 2.372-5.358 5.298-5.358zm-15.137 0c2.925 0 5.298 2.398 5.298 5.358 0 2.96-2.373 5.358-5.298 5.358-2.926 0-5.298-2.398-5.298-5.358 0-2.96 2.372-5.358 5.298-5.358zM5.297 49.397c0-2.959 2.371-5.358 5.298-5.358 2.926 0 5.298 2.399 5.298 5.358 0 2.959-2.373 5.358-5.298 5.358-2.927.001-5.298-2.399-5.298-5.358zm13.648 19.497c-2.926 0-5.298-2.398-5.298-5.358 0-2.96 2.372-5.358 5.298-5.358 2.925 0 5.298 2.398 5.298 5.358 0 2.96-2.373 5.358-5.298 5.358zm1.49-19.903c0-3.382 2.711-6.124 6.055-6.124s6.055 2.742 6.055 6.124c0 3.382-2.711 6.124-6.055 6.124-3.344-.001-6.055-2.742-6.055-6.124zm13.647 19.903c-2.926 0-5.298-2.398-5.298-5.358 0-2.96 2.372-5.358 5.298-5.358s5.299 2.398 5.299 5.358c0 2.96-2.373 5.358-5.299 5.358zm8.302-14.138c-2.927 0-5.298-2.399-5.298-5.358 0-2.959 2.371-5.358 5.298-5.358 2.926 0 5.298 2.399 5.298 5.358 0 2.958-2.372 5.358-5.298 5.358zM9.646 15.31h33.687c.843 0 1.432-.681 1.306-1.514L43.023 3.028l-.002-.002C42.771 1.362 41.189 0 39.506 0H13.474c-1.686 0-3.268 1.362-3.517 3.028L8.342 13.795c-.125.833.461 1.515 1.304 1.515zM43.333 82.671H9.646c-.843 0-1.429.683-1.304 1.516l1.615 10.767c.25 1.666 1.832 3.028 3.516 3.028h26.032c1.684 0 3.266-1.362 3.517-3.026v-.002l1.615-10.767c.128-.833-.461-1.516-1.304-1.516z"/></g><defs><clipPath id="agclip0"><path fill="#fff" d="M0 0h56v98H0z"/></clipPath></defs></svg><svg width="97" height="55" fill="none" viewBox="0 0 97 55" id="categories--vr" x="239" xmlns="http://www.w3.org/2000/svg"><path d="M84.131 32.639V20.003c0-1.309 1.045-2.37 2.335-2.37l8.326 1.581V11.02c0-2.355-1.708-3.431-4.202-4.265L67.403.175c1.616 1.391 1.89 2.04 1.89 4.396V49.78c0 2.356-.45 4.066-1.968 5.21l23.265-7.065c2.401-.833 4.202-4.216 4.202-6.572V33.44l-8.326 1.567c-1.29.002-2.335-1.06-2.335-2.368z" fill="#363636"/><path d="M95.13 20.979l-7.599-1.444c-1.008 0-1.824.829-1.824 1.851v9.868c0 1.023.816 1.852 1.824 1.852l7.598-1.431c1.154-.419 1.824-.829 1.824-1.852V22.83c0-1.022-.766-1.507-1.824-1.851zM67.17 4.483c0-5.08-4.232-4.459-4.232-4.459S5.832 4.738 2.838 5.145C-.156 5.552.001 9.532.001 9.532v36.28c0 3.743 2.598 3.753 2.598 3.753l16.477 1.403L27.212 39.3s1.11-1.828 2.505-1.828c1.397 0 2.432 1.861 2.432 1.861l9.061 13.521s18.895 1.909 22.521 1.909c3.626-.001 3.44-5.024 3.44-5.024V4.483zM12.982 37.192c-3.698 0-6.696-4.601-6.696-10.275s2.998-10.275 6.696-10.275c3.698 0 6.696 4.601 6.696 10.275s-2.998 10.275-6.696 10.275zm36.158 1.426c-4.662 0-8.44-5.239-8.44-11.701 0-6.463 3.78-11.702 8.44-11.702 4.662 0 8.442 5.239 8.442 11.702 0 6.462-3.78 11.701-8.442 11.701z" fill="#363636"/></svg><svg width="11" height="11" fill="none" viewBox="0 0 11 11" id="close" x="275" y="173" xmlns="http://www.w3.org/2000/svg"><path d="M11 1l-1-1-4.5 4.5L1 0 0 1l4.5 4.5L0 10l1 1 4.5-4.5L10 11l1-1-4.5-4.5L11 1z" fill="#fff"/></svg><svg width="10" height="12" fill="none" viewBox="0 0 10 12" id="compare" x="265" y="173" xmlns="http://www.w3.org/2000/svg"><path d="M6 0H4v12h2V0zM2 4H0v8h2V4zM10 3H8v9h2V3z" fill="#000"/></svg><svg width="11" height="11" fill="none" viewBox="0 0 11 11" id="delete" x="286" y="173" xmlns="http://www.w3.org/2000/svg"><path d="M11 1l-1-1-4.5 4.5L1 0 0 1l4.5 4.5L0 10l1 1 4.5-4.5L10 11l1-1-4.5-4.5L11 1z" fill="#000"/></svg><svg width="47" height="31" fill="none" viewBox="0 0 47 31" id="delivery-truck" x="239" y="142" xmlns="http://www.w3.org/2000/svg"><g clip-path="url(#alclip0)" fill="#000"><path d="M46.7 15.4l-6.5-8.2c-.3-.4-.7-.6-1.2-.6h-8.3V1.5C30.7.7 30 0 29.2 0H1.5C.7 0 0 .7 0 1.5S.7 3 1.5 3h26.2V24.7H15.8c-.6-1.9-2.4-3.3-4.5-3.3-2.6 0-4.8 2.2-4.8 4.8 0 2.6 2.2 4.8 4.8 4.8 2.1 0 3.9-1.4 4.5-3.3h13.4c.8 0 1.5-.7 1.5-1.5V9.6h7.6l5.7 7.3v7.9h-2.2c-.6-1.9-2.4-3.3-4.5-3.3-2.6 0-4.8 2.2-4.8 4.8 0 2.6 2.1 4.8 4.8 4.8 2.1 0 3.9-1.4 4.5-3.3h3.7c.8 0 1.5-.7 1.5-1.5v-9.9c0-.4-.1-.7-.3-1zM11.3 28c-1 0-1.8-.8-1.8-1.8s.8-1.8 1.8-1.8 1.8.8 1.8 1.8-.9 1.8-1.8 1.8zm26.1 0c-1 0-1.8-.8-1.8-1.8s.8-1.8 1.8-1.8 1.8.8 1.8 1.8-.9 1.8-1.8 1.8z"/><path d="M19.4 9.6c.8 0 1.5-.7 1.5-1.5s-.7-1.5-1.5-1.5H4.8c-.8 0-1.5.7-1.5 1.5S4 9.6 4.8 9.6h14.6zM17.7 14.7c0-.8-.7-1.5-1.5-1.5H1.5c-.8 0-1.5.7-1.5 1.5s.7 1.5 1.5 1.5h14.7c.8 0 1.5-.7 1.5-1.5z"/></g><defs><clipPath id="alclip0"><path fill="#fff" d="M0 0h47v31H0z"/></clipPath></defs></svg><svg width="11" height="6" fill="none" viewBox="0 0 11 6" id="dropdown" x="315" y="160" xmlns="http://www.w3.org/2000/svg"><path d="M6.1 5.8l4.7-4.5c.3-.3.3-.8 0-1.1-.3-.3-.8-.3-1.1 0l-4.2 4-4.2-4C1-.1.5-.1.2.2.1.4 0 .6 0 .8c0 .2.1.4.2.5l4.7 4.5c.4.3.8.3 1.2 0z" fill="#000"/></svg><svg width="2" height="12" fill="none" viewBox="0 0 2 12" id="info" x="330" y="55" xmlns="http://www.w3.org/2000/svg"><path d="M2 0H0v2h2V0zM2 4H0v8h2V4z" fill="#000"/></svg><svg width="20" height="60" fill="none" viewBox="0 0 20 60" id="left-tall-arrow" x="310" y="55" xmlns="http://www.w3.org/2000/svg"><path d="M20 60h-3.5L0 30 16.5 0H20L3.8 30 20 60z" fill="#000"/></svg><svg width="40" height="40" fill="none" viewBox="0 0 40 40" id="link" x="86" y="69" xmlns="http://www.w3.org/2000/svg"><path d="M13.7 0c1 .3 1.4 1 1.3 2.1v4.5c0 1-.7 1.8-1.7 1.8-.9 0-1.7-.7-1.7-1.7v-5c0-.9.5-1.4 1.3-1.7h.8zM0 13c.4-1 1.1-1.3 2.1-1.3h4.5c1.3 0 2.1 1.2 1.6 2.3-.3.7-.8 1-1.5 1H1.6c-.9 0-1.4-.5-1.6-1.3V13zM40 27c-.4 1-1.1 1.4-2.1 1.3h-4.4c-1.2 0-2-.9-1.7-2 .2-.7.8-1.3 1.5-1.3h5.1c.9 0 1.3.6 1.6 1.3v.7zM26.3 40c-1-.3-1.4-1-1.3-2.1v-4.5c0-1 .7-1.8 1.7-1.8.9 0 1.7.7 1.7 1.8v4.4c0 1-.3 1.8-1.3 2.1-.3.1-.5.1-.8.1zM21.3 26.9c-2.3 0-4.3-.7-5.9-2.3-.5-.5-.7-1.1-.4-1.8.2-.7.7-1 1.4-1.1.5-.1 1 .2 1.4.5 1 .9 2.1 1.5 3.4 1.5 1.3 0 2.5-.5 3.4-1.5 3.6-3.5 7.1-7.1 10.6-10.6 1.5-1.5 1.9-3.5 1.1-5.2-.9-2-2.5-3.3-4.8-3.3-1.4 0-2.5.6-3.5 1.6l-5.6 5.6c-.7.7-1.8.7-2.5 0-.6-.7-.6-1.6.1-2.3 1-1 1.9-2 2.9-2.9l2.7-2.7c3.6-3.6 10.8-3 13.2 2.1 1.5 3.1 1 7.3-1.6 9.9-3.4 3.3-6.7 6.7-10 10-1.5 1.7-3.6 2.5-5.9 2.5z" fill="#000"/><path d="M18.2 14c1.8 0 3.8.7 5.4 2.3.5.5.6 1.1.4 1.8-.2.6-.7 1-1.4 1.1-.6.1-1-.1-1.4-.5-.8-.7-1.6-1.3-2.7-1.5-1.7-.3-3 .3-4.2 1.4l-3 3C9.1 23.8 7 26 4.8 28.1c-.8.8-1.3 1.7-1.5 2.8-.3 1.8.4 3.3 1.7 4.5 2.1 2 4.8 1.9 6.9-.1l4.7-4.7c.5-.5 1.1-.7 1.8-.4.6.2 1 .7 1.1 1.4.1.5-.1.9-.4 1.3-1.7 1.7-3.3 3.5-5.1 5.1-2.5 2.2-5.4 2.5-8.5 1.5-2.9-1-4.6-3.1-5.2-6.2-.5-2.9.2-5.5 2.4-7.7l9-9c1.7-1.7 3.7-2.6 6.5-2.6zM5 3.3c.5 0 .8.2 1.2.5 1.7 1.7 3.4 3.3 5 5 .7.7.6 1.7 0 2.4-.6.6-1.7.6-2.3 0-1.7-1.7-3.4-3.4-5-5.1-.6-.5-.7-1.1-.4-1.8.2-.6.8-1 1.5-1zM30 28.3c.5 0 .8.2 1.2.5 1.7 1.7 3.4 3.3 5 5 .7.7.6 1.7 0 2.3-.6.6-1.7.6-2.3 0-1.7-1.7-3.4-3.3-5-5-.5-.5-.6-1.2-.3-1.8.2-.6.7-.9 1.4-1z" fill="#000"/></svg><svg width="13" height="12" fill="none" viewBox="0 0 13 12" id="login" x="239" y="173" xmlns="http://www.w3.org/2000/svg"><path d="M0 12h13c-.2-2.6-2.1-4.8-4.7-5.5 1-.6 1.7-1.7 1.7-3C10 1.6 8.4 0 6.5 0S3 1.6 3 3.5c0 1.3.7 2.4 1.7 3C2.1 7.2.2 9.4 0 12z" fill="#000"/></svg><svg width="15" height="12" fill="none" viewBox="0 0 15 12" id="mail" x="286" y="160" xmlns="http://www.w3.org/2000/svg"><path d="M7.6 8c-.4 0-.6-.1-1-.3L0 4v7c0 .6.4 1 .9 1h13.2c.6 0 .9-.4.9-1V4L8.5 7.7c-.4.2-.6.3-.9.3zm6.5-8H.9C.4 0 0 .5 0 1v.8L7.5 6 15 1.8V1c0-.5-.4-1-.9-1z" fill="#000"/></svg><svg width="16" height="2" fill="none" viewBox="0 0 16 2" id="minus" x="313" y="156" xmlns="http://www.w3.org/2000/svg"><path d="M16 0H0v2h16V0z" fill="#000"/></svg><svg width="4" height="7" fill="none" viewBox="0 0 4 7" id="nav-arrow" x="332" y="55" xmlns="http://www.w3.org/2000/svg"><path d="M3.8 3.1l-3-3C.6-.1.3-.1.1.1 0 .3 0 .7.1.9l2.6 2.6L.1 6.1c-.1.2-.1.5 0 .7.1.1.3.2.4.2.1 0 .3-.1.4-.1l3-3c0-.1.1-.3.1-.4 0-.1-.1-.3-.2-.4z" fill="#000"/></svg><svg width="16" height="16" fill="none" viewBox="0 0 16 16" id="plus" x="208" y="65" xmlns="http://www.w3.org/2000/svg"><path d="M16 7H9V0H7v7H0v2h7v7h2V9h7V7z" fill="#000"/></svg><svg width="20" height="60" fill="none" viewBox="0 0 20 60" id="right-tall-arrow" x="188" y="65" xmlns="http://www.w3.org/2000/svg"><path d="M0 60h3.5L20 30 3.5 0H0l16.2 30L0 60z" fill="#000"/></svg><svg width="16" height="16" fill="none" viewBox="0 0 16 16" id="search" x="208" y="81" xmlns="http://www.w3.org/2000/svg"><path d="M15.7 14.3l-3.1-3.1C13.5 10 14 8.6 14 7c0-3.9-3.1-7-7-7S0 3.1 0 7s3.1 7 7 7c1.6 0 3-.5 4.2-1.4l3.1 3.1c.2.2.4.3.7.3.6 0 1-.4 1-1 0-.2-.1-.5-.3-.7zM2 7c0-2.8 2.2-5 5-5s5 2.2 5 5-2.2 5-5 5-5-2.2-5-5z" fill="#000"/></svg><svg width="9" height="18" fill="none" viewBox="0 0 9 18" id="socials--facebook" x="286" y="142" xmlns="http://www.w3.org/2000/svg"><path d="M6.5 3H9V0H5.6C2.8 0 2 1.7 2 4.2V6H0v3h2v9h3V9h3.3l.6-3H5V4.5C5 3.7 5.3 3 6.5 3z" fill="#444"/></svg><svg width="16" height="16" fill="none" viewBox="0 0 16 16" id="socials--instagram" x="208" y="97" xmlns="http://www.w3.org/2000/svg"><path d="M8 10a2 2 0 100-4 2 2 0 000 4z" fill="#444"/><path d="M14.7 1.3c-.9-.9-2-1.3-3.4-1.3H4.7C1.9 0 0 1.9 0 4.7v6.6c0 1.4.4 2.6 1.4 3.4.9.9 2 1.3 3.3 1.3h6.6c1.4 0 2.6-.4 3.4-1.3.8-.9 1.3-2 1.3-3.4V4.7c0-1.4-.4-2.6-1.3-3.4zM8 12.1c-2.2 0-4.1-1.8-4.1-4.1S5.8 3.9 8 3.9c2.2 0 4.1 1.8 4.1 4.1s-1.9 4.1-4.1 4.1zm4.6-7.4c-.7 0-1.3-.5-1.3-1.3s.5-1.3 1.3-1.3c.7 0 1.3.6 1.3 1.3 0 .7-.6 1.3-1.3 1.3z" fill="#444"/></svg><svg width="15" height="14" fill="none" viewBox="0 0 15 14" id="socials--twitter" x="224" y="65" xmlns="http://www.w3.org/2000/svg"><g clip-path="url(#azclip0)"><path d="M9.7.1c1.5-.5 2.6.3 3.2 1.1.5-.2 1.1-.4 1.7-.6 0 .8-.5 1.4-.8 1.6.7.2 1.2-.4 1.2-.4-.1.9-.9 1.7-1.4 1.9-.2 6.3-2.8 10.4-8.9 10.3h-.4C4 14 .6 13.6 0 12.2c2 .2 3.4-.4 4.1-1.1-.8-.3-2.4-.4-2.6-2.8.3.2.5.3 1.1.2C1.5 7.7.3 7 .4 5c.3.3.9.5 1.2.4C1 5.2-.2 2.3.8.8c1.6 1.7 3.3 3.4 6.3 3.5.2-2.1 1-3.5 2.6-4.2z" fill="#444"/></g><defs><clipPath id="azclip0"><path fill="#fff" d="M0 0h15v14H0z"/></clipPath></defs></svg><svg width="11" height="10" fill="none" viewBox="0 0 11 10" id="sort-down" x="297" y="173" xmlns="http://www.w3.org/2000/svg"><path d="M5.5 10L0 0h11" fill="#000"/></svg><svg width="11" height="10" fill="none" viewBox="0 0 11 10" id="sort-up" x="308" y="173" xmlns="http://www.w3.org/2000/svg"><path d="M5.5 0L11 10H0" fill="#000"/></svg><svg width="18" height="16" fill="none" viewBox="0 0 18 16" id="thumbs-up" x="295" y="142" xmlns="http://www.w3.org/2000/svg"><path d="M9.9 6.1h6.4c.7 0 1.2.3 1.5.9.2.4.2.8 0 1.3-.6 1.9-1.3 3.8-1.9 5.7-.1.3-.2.6-.3.8-.2.7-.8 1.1-1.5 1.1H7.7c-.3 0-.5 0-.8-.1-1-.3-1.8-1.2-1.8-2.3V9 6.3c0-.2 0-.3.1-.4C6.9 4 8.5 2.1 10.1.1c0-.1.1-.1.2-.1 1.1.6 1.7 2 1.1 3.2-.4.9-.9 1.8-1.3 2.6-.1.1-.1.2-.2.3zM3.9 10.7V15c0 .2-.1.2-.2.2H.2c-.2 0-.2 0-.2-.2V6.3c0-.2.1-.2.2-.2h3.5c.2 0 .2.1.2.2v4.4z" fill="#000"/></svg><svg width="10" height="10" fill="none" viewBox="0 0 10 10" id="tick" x="319" y="173" xmlns="http://www.w3.org/2000/svg"><path d="M10 0L3.1 6.6 0 3.6v3.3L3.2 10 10 3.3V0z" fill="#000"/></svg><svg width="14" height="14" fill="none" viewBox="0 0 14 14" id="tick-big" x="224" y="81" xmlns="http://www.w3.org/2000/svg"><path d="M14 0L4.4 9.3 0 5v4.7L4.5 14 14 4.7V0z" fill="#08AF00"/></svg><svg width="13" height="13" fill="none" viewBox="0 0 13 13" id="timeline-triangle" x="224" y="97" xmlns="http://www.w3.org/2000/svg"><path d="M0 13V0h13L0 13z" fill="#000"/></svg><svg width="14" height="6" fill="none" viewBox="0 0 14 6" id="triangle" x="301" y="160" xmlns="http://www.w3.org/2000/svg"><path d="M14 6H0l7-6 7 6z" fill="#000"/></svg><svg width="13" height="12" fill="none" viewBox="0 0 13 12" id="user" x="252" y="173" xmlns="http://www.w3.org/2000/svg"><path d="M0 12h13c-.2-2.6-2.1-4.8-4.7-5.5 1-.6 1.7-1.7 1.7-3C10 1.6 8.4 0 6.5 0S3 1.6 3 3.5c0 1.3.7 2.4 1.7 3C2.1 7.2.2 9.4 0 12z" fill="#000"/></svg></svg>